# xmcd
#
# Track frame offsets:
#	182
#	18795
#	67345
#	105907
#	144652
#	183492
#	214382
#	241095
#
# Disc length: 3667 seconds
#
# Revision: 4
# Processed by: cddbd v1.5.2PL0 Copyright (c) Steve Scherf et al.
# Submitted via: EasyCDDAExtractor 15.3.0.1
#
DISCID=6e0e5108
DTITLE=Cher - Paradise Is Here
DYEAR=1996
DGENRE=Pop
TTITLE0=Paradise Is Here (Single Mix)
TTITLE1=Paradise Is Here (Junior's Arena Anthem)
TTITLE2=Paradise Is Here (Runway Mix)
TTITLE3=Paradise Is Here (Glow Stick Mix)
TTITLE4=Paradise Is Here (Give Me The Night Dub)
TTITLE5=Paradise Is Here (Sunrise Mix)
TTITLE6=Paradise Is Here (Eurodance Mix)
TTITLE7=Paradise Is Here (Garage Revival Mix)
EXTD=YEAR: 1996
EXTT0=
EXTT1=
EXTT2=
EXTT3=
EXTT4=
EXTT5=
EXTT6=
EXTT7=
PLAYORDER=
